# xmcd
#
# Track frame offsets: 
#        150
#        8592
#        20223
#        30364
#        42400
#        53019
#        65513
#        78302
#        89063
#        100850
#        111740
#        124380
#        135609
#        144601
#        156516
#        168234
#        181462
#        193210
#        203718
#        214912
#        225962
#        233232
#        243814
#        255204
#        267351
#        278890
#        289294
#        297260
#        306857
#        319346
#        330703
#
# Disc length: 4539 seconds
#
# Revision: 0
# Processed by: cddbd v1.5.2PL0 Copyright (c) Steve Scherf et al.
# Submitted via: ExactAudioCopy v0.95b3
#
DISCID=d211b91f
DTITLE=Various Artist - Mason Dixon Boogie
DYEAR=2008
DGENRE=Country
TTITLE0=Randy Hughes and His Band - Sweetly, Neatly And So Completely
TTITLE1=Randy Hughes and His The Nite Owls - Roll On Freight Train
TTITLE2=Randy Hughes and Hal Bradley Band - When Elephants Start To Roos
TTITLE2=t In Trees
TTITLE3=Randy Hughes and Hal Bradley Band - I'd Rather Be A Rooster
TTITLE4=Don Davis and The Nite Owls - If You Did Half As Much Flirtin'
TTITLE5=Dick Stratton and The Nite Owls - I Ain't Cryin' Over You
TTITLE6=Del Wood With Rhythm - Please Don't Talk About Me (Instr.)
TTITLE7=Dick Stratton and The Nite Owls - Sugar Coated Love
TTITLE8=Lonnie Smith - You're My Honky Tonk Angel
TTITLE9=Lonnie Smith - Gal's Below The Mason Dixon Line
TTITLE10=Cuzzin (Dan McNew) Clem and William Moore and Country Cousins - L
TTITLE10=ove Or Indigestion
TTITLE11=Roy Sneed and Wm Moore and Country Cousins - Chattanooga Stomp (I
TTITLE11=nstr.)
TTITLE12=Bob Jennings - My Little Blue Eyes
TTITLE13=Lee Bond With Band - You've Been Cryin' Sweetheart
TTITLE14=Lee Bond With Band - For Sale, One Broken Heart
TTITLE15=Bob Eaton and His Lone Star Boys - My Dreamboat Stuck A Snag
TTITLE16=Randy Hughes - If I Loved A Liar, I'd Hug Your Neck
TTITLE17=Dink Embry and The Kentucky Lads - Mason Dixon Boogie (Instr.)
TTITLE18=Bob Williams and The Nite Owls - So Don't You Weep
TTITLE19=Bob Williams and His Band - Our Last Goodby
TTITLE20=Vaughn Brothers - I've Gone And Done It Again
TTITLE21=Big Jeff and The Radio Playboys - After We Are Through
TTITLE22=Gabe Tucker and His Musical Ramblers - Cracker Barrell Farmer
TTITLE23=Gabe Tucker and His Musical Ramblers - It'd Surprise You
TTITLE24=Chickie King and Her Harvesters - Love-You, Love-You, Love-You
TTITLE25=Roy Hall With Rhythm - John Henry (INstr.)
TTITLE26=Roy Hall With Rhythm - Back Up And Push (Instr.)
TTITLE27=Jimmy Simpson - Sittin' On The Doorstep
TTITLE28=Reece Shipley - Middle Age Spread
TTITLE29=Jam-Up and Honey - Holdin' The Sack
TTITLE30=Andy Wilson - How Can I Ever Lose Something (That Never Belon
TTITLE30=ged To Me)
EXTD=
EXTT0=
EXTT1=
EXTT2=
EXTT3=
EXTT4=
EXTT5=
EXTT6=
EXTT7=
EXTT8=
EXTT9=
EXTT10=
EXTT11=
EXTT12=
EXTT13=
EXTT14=
EXTT15=
EXTT16=
EXTT17=
EXTT18=
EXTT19=
EXTT20=
EXTT21=
EXTT22=
EXTT23=
EXTT24=
EXTT25=
EXTT26=
EXTT27=
EXTT28=
EXTT29=
EXTT30=
PLAYORDER=
